<svg width="15" height="15" viewBox="0 0 15 15" fill="none" xmlns="http://www.w3.org/2000/svg">
  <g clip-path="url('#clip0_2164_5111')">
    <path d="M7.50103 5.06011C6.15704 5.06011 5.06024 6.15692 5.06024 7.50091C5.06024 8.8449 6.15704 9.94171 7.50103 9.94171C8.84503 9.94171 9.94183 8.8449 9.94183 7.50091C9.94183 6.15692 8.84503 5.06011 7.50103 5.06011ZM14.8216 7.50091C14.8216 6.49017 14.8307 5.48858 14.774 4.47967C14.7172 3.3078 14.4499 2.26776 13.593 1.41082C12.7342 0.552058 11.696 0.286555 10.5241 0.229793C9.51336 0.17303 8.51177 0.182185 7.50286 0.182185C6.49212 0.182185 5.49053 0.17303 4.48162 0.229793C3.30975 0.286555 2.26971 0.553889 1.41278 1.41082C0.554011 2.26959 0.288508 3.3078 0.231746 4.47967C0.174983 5.49041 0.184138 6.492 0.184138 7.50091C0.184138 8.50982 0.174983 9.51324 0.231746 10.5222C0.288508 11.694 0.555843 12.7341 1.41278 13.591C2.27154 14.4498 3.30975 14.7153 4.48162 14.772C5.49237 14.8288 6.49395 14.8196 7.50286 14.8196C8.51361 14.8196 9.51519 14.8288 10.5241 14.772C11.696 14.7153 12.736 14.4479 13.593 13.591C14.4517 12.7322 14.7172 11.694 14.774 10.5222C14.8326 9.51324 14.8216 8.51165 14.8216 7.50091ZM7.50103 11.2564C5.42279 11.2564 3.74554 9.57916 3.74554 7.50091C3.74554 5.42266 5.42279 3.74542 7.50103 3.74542C9.57928 3.74542 11.2565 5.42266 11.2565 7.50091C11.2565 9.57916 9.57928 11.2564 7.50103 11.2564ZM11.4103 4.46868C10.9251 4.46868 10.5333 4.07684 10.5333 3.59161C10.5333 3.10638 10.9251 2.71453 11.4103 2.71453C11.8956 2.71453 12.2874 3.10638 12.2874 3.59161C12.2876 3.70683 12.265 3.82095 12.2209 3.92742C12.1769 4.0339 12.1123 4.13064 12.0308 4.21212C11.9494 4.29359 11.8526 4.35819 11.7461 4.40222C11.6397 4.44624 11.5256 4.46883 11.4103 4.46868Z" fill="#7C7C7C"></path>
  </g>
  <defs>
    <clipPath id="clip0_2164_5111">
      <rect width="15" height="15" fill="white"></rect>
    </clipPath>
  </defs>
</svg>